<svg viewBox="0 0 1200 360" width="1200" height="360" xmlns="http://www.w3.org/2000/svg">
  <defs>
    <linearGradient id="bgGrad" x1="0%" y1="0%" x2="100%" y2="100%">
      <stop offset="0%" stop-color="#1a0e08"/>
      <stop offset="45%" stop-color="#2b140a"/>
      <stop offset="100%" stop-color="#120a06"/>
    </linearGradient>
    <radialGradient id="glow" cx="50%" cy="35%" r="60%">
      <stop offset="0%" stop-color="#ff8a3d" stop-opacity="0.18"/>
      <stop offset="100%" stop-color="#ff8a3d" stop-opacity="0"/>
    </radialGradient>
    <linearGradient id="lineGrad" x1="0%" y1="0%" x2="100%" y2="0%">
      <stop offset="0%" stop-color="#ffffff" stop-opacity="0"/>
      <stop offset="50%" stop-color="#ffb347" stop-opacity="0.5"/>
      <stop offset="100%" stop-color="#ffffff" stop-opacity="0"/>
    </linearGradient>
  </defs>

  <rect x="0" y="0" width="1200" height="360" fill="url(#bgGrad)"/>
  <rect x="0" y="0" width="1200" height="360" fill="url(#glow)"/>

  <circle cx="120" cy="70" r="90" fill="#ff8a3d" opacity="0.06"/>
  <circle cx="1080" cy="300" r="120" fill="#ffb347" opacity="0.05"/>
  <circle cx="960" cy="60" r="50" fill="#ffffff" opacity="0.04"/>
  <circle cx="150" cy="310" r="60" fill="#ffffff" opacity="0.04"/>

  <path d="M 60 60 A 30 30 0 1 1 120 60 A 24 24 0 1 1 60 60 Z" fill="none" stroke="#ffd7a3" stroke-width="1" opacity="0.08"/>
  <circle cx="1130" cy="90" r="4" fill="#ffd7a3" opacity="0.25"/>
  <circle cx="70" cy="290" r="3" fill="#ffd7a3" opacity="0.25"/>
  <circle cx="1050" cy="250" r="3" fill="#ffd7a3" opacity="0.2"/>

  <line x1="220" y1="45" x2="980" y2="45" stroke="url(#lineGrad)" stroke-width="1"/>
  <line x1="220" y1="315" x2="980" y2="315" stroke="url(#lineGrad)" stroke-width="1"/>

  <text x="600" y="155" text-anchor="middle" font-family="Segoe UI, Arial, sans-serif" font-size="56.0" font-weight="700" fill="#ffffff">
    <tspan x="600" dy="0">Work At Pizza Place Script</tspan>
  </text>

  <text x="600" y="215" text-anchor="middle" font-family="Segoe UI, Arial, sans-serif" font-size="20.0" fill="#c9d1d9">
    <tspan x="600" dy="0">Lightweight Work at a Pizza Place script hub for Roblox players — single-file loader</tspan>
    <tspan x="600" dy="30">with built-in autofarm a…</tspan>
  </text>
</svg>